mtllib thePrix.mtl
# vertices
v -656 -480 -960
v -656 -480 960
v -656 -96 960
v -656 -96 -960
v 736 -96 960
v 736 -480 960
v 736 -480 -960
v 736 -96 -960
v -128 -112 448
v -128 -112 528
v -128 112 528
v -128 112 448
v -64 112 528
v -64 -112 528
v -64 -112 448
v -64 112 448
v 352 -112 432
v 352 -112 512
v 352 112 512
v 352 112 432
v 416 112 512
v 416 -112 512
v 416 -112 432
v 416 112 432
v -384 -112 -656
v -384 -112 -576
v -384 112 -576
v -384 112 -656
v -320 112 -576
v -320 -112 -576
v -320 -112 -656
v -320 112 -656

# texture coordinates
vt -60 -30
vt 60 -30
vt 60 -6
vt -60 -6
vt 46 -6
vt -41 -6
vt -41 -30
vt 46 -30
vt -46 -60
vt 41 -60
vt 41 60
vt -46 60
vt 46 60
vt -41 60
vt -41 -60
vt 46 -60
vt -46 -30
vt 41 -30
vt 41 -6
vt -46 -6
vt 3.5 -0.875
vt 4.125 -0.875
vt 4.125 0.875
vt 3.5 0.875
vt -0.5 0.875
vt -1 0.875
vt -1 -0.875
vt -0.5 -0.875
vt 0.5 -4.125
vt 1 -4.125
vt 1 -3.5
vt 0.5 -3.5
vt -0.5 -3.5
vt -1 -3.5
vt -1 -4.125
vt -0.5 -4.125
vt 0.5 -0.875
vt 1 -0.875
vt 1 0.875
vt 0.5 0.875
vt -3.5 0.875
vt -4.125 0.875
vt -4.125 -0.875
vt -3.5 -0.875
vt 3.375 -0.875
vt 4 -0.875
vt 4 0.875
vt 3.375 0.875
vt 3.25 0.875
vt 2.75 0.875
vt 2.75 -0.875
vt 3.25 -0.875
vt -3.25 -4
vt -2.75 -4
vt -2.75 -3.375
vt -3.25 -3.375
vt 3.25 -3.375
vt 2.75 -3.375
vt 2.75 -4
vt 3.25 -4
vt -3.25 -0.875
vt -2.75 -0.875
vt -2.75 0.875
vt -3.25 0.875
vt -3.375 0.875
vt -4 0.875
vt -4 -0.875
vt -3.375 -0.875
vt -5.125 -0.875
vt -4.5 -0.875
vt -4.5 0.875
vt -5.125 0.875
vt -2.5 0.875
vt -3 0.875
vt -3 -0.875
vt -2.5 -0.875
vt 2.5 4.5
vt 3 4.5
vt 3 5.125
vt 2.5 5.125
vt -2.5 5.125
vt -3 5.125
vt -3 4.5
vt -2.5 4.5
vt 2.5 -0.875
vt 3 -0.875
vt 3 0.875
vt 2.5 0.875
vt 5.125 0.875
vt 4.5 0.875
vt 4.5 -0.875
vt 5.125 -0.875

# normals
vn -1 0 -0
vn 0 0 1
vn 0 -1 -0
vn 0 1 -0
vn 0 0 -1
vn 1 0 -0

o entity0_brush0
usemtl 16_green_1
f  1/1/1  2/2/1  3/3/1  4/4/1
usemtl 16_green_1
f  5/5/2  3/6/2  2/7/2  6/8/2
usemtl 16_green_1
f  6/9/3  2/10/3  1/11/3  7/12/3
usemtl 16_green_1
f  8/13/4  4/14/4  3/15/4  5/16/4
usemtl 16_green_1
f  7/17/5  1/18/5  4/19/5  8/20/5
usemtl 16_green_1
f  8/3/6  5/4/6  6/1/6  7/2/6

o entity0_brush1
usemtl 128_grey_2
f  9/21/1  10/22/1  11/23/1  12/24/1
usemtl 128_grey_2
f  13/25/2  11/26/2  10/27/2  14/28/2
usemtl 128_grey_2
f  14/29/3  10/30/3  9/31/3  15/32/3
usemtl 128_grey_2
f  16/33/4  12/34/4  11/35/4  13/36/4
usemtl 128_grey_2
f  15/37/5  9/38/5  12/39/5  16/40/5
usemtl 128_grey_2
f  16/41/6  13/42/6  14/43/6  15/44/6

o entity0_brush2
usemtl 128_grey_2
f  17/45/1  18/46/1  19/47/1  20/48/1
usemtl 128_grey_2
f  21/49/2  19/50/2  18/51/2  22/52/2
usemtl 128_grey_2
f  22/53/3  18/54/3  17/55/3  23/56/3
usemtl 128_grey_2
f  24/57/4  20/58/4  19/59/4  21/60/4
usemtl 128_grey_2
f  23/61/5  17/62/5  20/63/5  24/64/5
usemtl 128_grey_2
f  24/65/6  21/66/6  22/67/6  23/68/6

o entity0_brush3
usemtl 128_grey_2
f  25/69/1  26/70/1  27/71/1  28/72/1
usemtl 128_grey_2
f  29/73/2  27/74/2  26/75/2  30/76/2
usemtl 128_grey_2
f  30/77/3  26/78/3  25/79/3  31/80/3
usemtl 128_grey_2
f  32/81/4  28/82/4  27/83/4  29/84/4
usemtl 128_grey_2
f  31/85/5  25/86/5  28/87/5  32/88/5
usemtl 128_grey_2
f  32/89/6  29/90/6  30/91/6  31/92/6

