mtllib thePrix_floor.mtl
# vertices
v -592 -480 -944
v -592 -480 976
v -592 -96 976
v -592 -96 -944
v 816 -96 976
v 816 -480 976
v 816 -480 -944
v 816 -96 -944

# texture coordinates
vt -59 -30
vt 61 -30
vt 61 -6
vt -59 -6
vt 51 -6
vt -37 -6
vt -37 -30
vt 51 -30
vt -51 -61
vt 37 -61
vt 37 59
vt -51 59
vt 51 59
vt -37 59
vt -37 -61
vt 51 -61
vt -51 -30
vt 37 -30
vt 37 -6
vt -51 -6
vt 59 -6
vt -61 -6
vt -61 -30
vt 59 -30

# normals
vn -1 0 -0
vn 0 0 1
vn 0 -1 -0
vn 0 1 -0
vn 0 0 -1
vn 1 0 -0

o entity1_brush0
usemtl 16_green_1
f  1/1/1  2/2/1  3/3/1  4/4/1
usemtl 16_green_1
f  5/5/2  3/6/2  2/7/2  6/8/2
usemtl 16_green_1
f  6/9/3  2/10/3  1/11/3  7/12/3
usemtl 16_green_1
f  8/13/4  4/14/4  3/15/4  5/16/4
usemtl 16_green_1
f  7/17/5  1/18/5  4/19/5  8/20/5
usemtl 16_green_1
f  8/21/6  5/22/6  6/23/6  7/24/6

