mtllib thePrix_walls.mtl
# vertices
v 256 -96 448
v 256 -96 592
v 256 128 592
v 256 128 448
v 384 128 592
v 384 -96 592
v 384 -96 448
v 384 128 448
v -528 -96 688
v -528 -96 736
v -528 0 736
v -528 0 688
v -144 0 736
v -144 -96 736
v -144 -96 688
v -144 0 688
v -352 -96 272
v -352 -96 352
v -352 128 352
v -352 128 272
v -288 128 352
v -288 -96 352
v -288 -96 272
v -288 128 272
v 0 -96 -448
v 0 -96 -368
v 0 128 -368
v 0 128 -448
v 64 128 -368
v 64 -96 -368
v 64 -96 -448
v 64 128 -448

# texture coordinates
vt 3.5 -0.75
vt 4.625 -0.75
vt 4.625 1
vt 3.5 1
vt 3 1
vt 2 1
vt 2 -0.75
vt 3 -0.75
vt -3 -4.625
vt -2 -4.625
vt -2 -3.5
vt -3 -3.5
vt 3 -3.5
vt 2 -3.5
vt 2 -4.625
vt 3 -4.625
vt -3 -0.75
vt -2 -0.75
vt -2 1
vt -3 1
vt -3.5 1
vt -4.625 1
vt -4.625 -0.75
vt -3.5 -0.75
vt 5.375 -0.75
vt 5.75 -0.75
vt 5.75 -0
vt 5.375 -0
vt -1.125 -0
vt -4.125 -0
vt -4.125 -0.75
vt -1.125 -0.75
vt 1.125 -5.75
vt 4.125 -5.75
vt 4.125 -5.375
vt 1.125 -5.375
vt -1.125 -5.375
vt -4.125 -5.375
vt -4.125 -5.75
vt -1.125 -5.75
vt 1.125 -0.75
vt 4.125 -0.75
vt 4.125 -0
vt 1.125 -0
vt -5.375 -0
vt -5.75 -0
vt -5.75 -0.75
vt -5.375 -0.75
vt 2.125 -0.75
vt 2.75 -0.75
vt 2.75 1
vt 2.125 1
vt -2.25 1
vt -2.75 1
vt -2.75 -0.75
vt -2.25 -0.75
vt 2.25 -2.75
vt 2.75 -2.75
vt 2.75 -2.125
vt 2.25 -2.125
vt -2.25 -2.125
vt -2.75 -2.125
vt -2.75 -2.75
vt -2.25 -2.75
vt 2.25 -0.75
vt 2.25 1
vt -2.125 1
vt -2.125 -0.75
vt -2.875 -0.75
vt -2.875 1
vt 0.5 1
vt 0 1
vt 0 -0.75
vt 0.5 -0.75
vt -0.5 2.875
vt 0 2.875
vt 0 3.5
vt -0.5 3.5
vt 0.5 3.5
vt 0.5 2.875
vt -0.5 -0.75
vt -0.5 1
vt 2.875 1
vt 2.875 -0.75

# normals
vn -1 0 -0
vn 0 0 1
vn 0 -1 -0
vn 0 1 -0
vn 0 0 -1
vn 1 0 -0

o entity1_brush0
usemtl 128_grey_2
f  1/1/1  2/2/1  3/3/1  4/4/1
usemtl 128_grey_2
f  5/5/2  3/6/2  2/7/2  6/8/2
usemtl 128_grey_2
f  6/9/3  2/10/3  1/11/3  7/12/3
usemtl 128_grey_2
f  8/13/4  4/14/4  3/15/4  5/16/4
usemtl 128_grey_2
f  7/17/5  1/18/5  4/19/5  8/20/5
usemtl 128_grey_2
f  8/21/6  5/22/6  6/23/6  7/24/6

o entity1_brush1
usemtl 128_grey_2
f  9/25/1  10/26/1  11/27/1  12/28/1
usemtl 128_grey_2
f  13/29/2  11/30/2  10/31/2  14/32/2
usemtl 128_grey_2
f  14/33/3  10/34/3  9/35/3  15/36/3
usemtl 128_grey_2
f  16/37/4  12/38/4  11/39/4  13/40/4
usemtl 128_grey_2
f  15/41/5  9/42/5  12/43/5  16/44/5
usemtl 128_grey_2
f  16/45/6  13/46/6  14/47/6  15/48/6

o entity1_brush2
usemtl 128_grey_2
f  17/49/1  18/50/1  19/51/1  20/52/1
usemtl 128_grey_2
f  21/53/2  19/54/2  18/55/2  22/56/2
usemtl 128_grey_2
f  22/57/3  18/58/3  17/59/3  23/60/3
usemtl 128_grey_2
f  24/61/4  20/62/4  19/63/4  21/64/4
usemtl 128_grey_2
f  23/65/5  17/50/5  20/51/5  24/66/5
usemtl 128_grey_2
f  24/67/6  21/54/6  22/55/6  23/68/6

o entity1_brush3
usemtl 128_grey_2
f  25/24/1  26/69/1  27/70/1  28/21/1
usemtl 128_grey_2
f  29/71/2  27/72/2  26/73/2  30/74/2
usemtl 128_grey_2
f  30/75/3  26/76/3  25/77/3  31/78/3
usemtl 128_grey_2
f  32/79/4  28/77/4  27/76/4  29/80/4
usemtl 128_grey_2
f  31/81/5  25/73/5  28/72/5  32/82/5
usemtl 128_grey_2
f  32/4/6  29/83/6  30/84/6  31/1/6

