mtllib thePrix_pipes.mtl
# vertices
v 384 -96 144
v 488 -40 64
v 384 -96 -136
v 496 -40 -72
v 536 -32 104
v 536 -32 -88
v 536 -36 115
v 536 -36 -98.49999999974185
v 528 -96 216
v 528 -96 -216
v 536 -64 148
v 536 -64 -136
v -504 -36 -115
v -504 -64 -148
v -504 -64 136
v -504 -36 98.49999999973286
v -504 -32 88
v -504 -32 -104
v -496 -96 216
v -496 -96 -216
v -352 -96 136
v -352 -96 -144
v -456 -40 -64
v -464 -40 72
v -136 -96 -312
v -98.49999999974912 -36 -464
v -216 -96 -456
v -88 -32 -464
v -72 -40 -424
v -136 -64 -464
v 64 -40 -416
v 144 -96 -312
v 104 -32 -464
v 216 -96 -456
v 148 -64 -464
v 115 -36 -464
v -216 -96 472
v -115 -36 480
v -144 -96 328
v -104 -32 480
v -148 -64 480
v -64 -40 432
v 88 -32 480
v 136 -64 480
v 98.49999999973329 -36 480
v 216 -96 472
v 136 -96 328
v 72 -40 440

# texture coordinates
vt 1.125 -2.9375
vt 0.5 -3.75
vt -1.0625 -2.9375
vt -0.5625 -3.8125
vt -0.3892789 3.709559
vt -1.0142789 2.897059
vt -0.7017789 4.084559
vt -4.1875 0.60605204
vt -3 0.98105204
vt -3.875 0.48105204
vt -0.7877164 4.084559
vt -4.1875 0.6880833
vt 4.1875 0.7929497
vt 3 1.0195122
vt 4.125 1.5820122
vt -4.125 1.606052
vt 4.1875 0.6875
vt 3.875 0.5625
vt 3.8125 -0.5
vt 4.1875 -0.8125
vt -4.125 -1.6875
vt -3 -1.125
vt -3 1.0625
vt -4.125 1.6875
vt 0.9399805 0.7929497
vt 1.4087305 1.5820122
vt 1.1587305 1.0507622
vt -1.1606755 0.98105204
vt -1.4106755 1.606052
vt -0.9419255 0.6880833
vt -1.15625 -0.5
vt -1.6875 -0.75
vt 1.6875 -0.75
vt 1.0625 -0.5
vt 0.6875 -0.25
vt -0.8125 -0.25
vt -0.8984375 -0.28125
vt 0.76953125 -0.28125
vt 0.8984375 -0.28125
vt 1.15625 -0.5
vt -1.0625 -0.5
vt -0.76953125 -0.28125
vt -0.6875 -0.25
vt 0.8125 -0.25
vt 2.75 -1.0625
vt 3.875 -1.6875
vt 3.875 1.6875
vt 2.75 1.125
vt -3.9375 0.8125
vt -3.9375 -0.6875
vt -3.5625 0.5
vt -3.625 -0.5625
vt 3.9375 -0.8509792
vt 3.875 -1.768948
vt 2.75 -1.143948
vt -2.75 -1.2304878
vt -3.875 -1.7929878
vt -3.9375 -1.0039253
vt 3.9375 -0.76894796
vt 1.2357211 -2.852941
vt 1.0091586 -4.040441
vt 0.9232211 -4.040441
vt 3.625 -0.64394796
vt 0.6107211 -3.665441
vt -0.5 3.625
vt 0.5625 3.6875
vt 1.0625 2.8125
vt -1.125 2.8125
vt 1.0625 2.356052
vt 0.76953125 3.543552
vt 1.6875 3.481052
vt 0.6875 3.543552
vt 0.5625 3.231052
vt -3.25 -0.4375
vt -3.3125 0.625
vt -2.4375 1.125
vt -0.6875 3.625
vt -0.5625 3.3125
vt 0.5 3.25
vt -2.4375 -1.0625
vt 0.8125 3.625
vt -1.125 2.4375
vt 1.0625 2.4375
vt 1.6875 3.5625
vt -1.6875 3.5625
vt 3.735721 0.70955896
vt 3.360721 0.39705896
vt 2.548221 1.022059
vt 3.735721 0.79549646
vt 1.125 -2.5429878
vt 1.6875 -3.6679878
vt 0.8984375 -3.7304878
vt -1.6875 3.5820122
vt -0.8984375 3.6445122
vt -1.125 2.4570122
vt -3.639279 -0.91544104
vt -2.451779 -1.227941
vt -3.639279 -1.0013785
vt 1.1587305 -1.2617378
vt 0.9399805 -1.0039253
vt 1.4087305 -1.7929878
vt -3.264279 -0.60294104
vt -1.6875 -3.6875
vt 1.6875 -3.6875
vt 1.125 -2.5625
vt -1.0625 -2.5625
vt -0.5 -3.375
vt -0.8125 -3.75
vt 0.6875 -3.75
vt 2.5625 -1
vt 2.5625 1.1875
vt 3.375 0.5625
vt 0.5625 -3.4375
vt 3.4375 -0.5
vt -0.9419255 -0.8509792
vt -1.1606755 -1.143948
vt -1.4106755 -1.768948
vt -1.0625 -2.643948
vt -0.5625 -3.518948
vt -0.6875 -3.831448
vt -0.76953125 -3.831448
vt -1.6875 -3.768948

# normals
vn -0.4740998230350175 0.8804710999221753 -0
vn -0.4353224789513542 0.8999103346389338 -0.025607204644197305
vn -0.3309270855121796 0.9192419042004989 0.21326412177451576
vn -0.2953352722740683 0.9128544779380292 -0.2819109417161561
vn -0.2924061859182953 0.8987190126018195 0.32680691367338893
vn -0.27056620262236464 0.8996326237285154 -0.34271719000053225
vn -0.24077170617153842 0.8427009716003845 0.48154341234307685
vn -0.23820732739053482 0.8714418060389484 -0.42877318930296265
vn -0.2006397346147622 0.9795939984132508 -0.01180233733028013
vn -0.1643989873053573 0.9863939238321437 -0
vn 0 -1 -0
vn 0.9258083289028533 0.2882233476773034 0.24455314348377255
vn 0.9408871654359126 0.27140975926452254 -0.20265262024940028
vn 0.9701425001453319 -0.24253562503633297 -0
vn 1 0 -0
vn -1 -0 -0
vn -0.9701425001453319 -0.24253562503633297 0
vn -0.9408871654359123 0.27140975926452315 0.20265262024940048
vn -0.9258083289028533 0.2882233476773034 -0.24455314348377255
vn 0.1643989873053573 0.9863939238321437 -0
vn 0.2006397346147622 0.9795939984132508 0.01180233733028013
vn 0.23820732739053477 0.8714418060389486 0.4287731893029626
vn 0.24077170617153842 0.8427009716003845 -0.48154341234307685
vn 0.2705662026223641 0.899632623728515 0.34271719000053347
vn 0.2924061859182953 0.8987190126018195 -0.32680691367338893
vn 0.2953352722740683 0.9128544779380292 0.2819109417161561
vn 0.3309270855121796 0.9192419042004989 -0.21326412177451576
vn 0.4353224789513542 0.8999103346389338 0.025607204644197305
vn 0.4740998230350175 0.8804710999221753 0
vn -0.4287731893029626 0.8714418060389486 0.23820732739053477
vn -0.342717190000534 0.899632623728515 0.270566202622364
vn -0.2819109417161561 0.9128544779380292 0.2953352722740683
vn -0.20265262024940056 0.2714097592645234 -0.9408871654359122
vn -0.025607204644197305 0.8999103346389338 0.4353224789513542
vn -0.01180233733028013 0.9795939984132508 0.2006397346147622
vn 0 0.8804710999221753 0.4740998230350175
vn 0 0.9863939238321437 0.1643989873053573
vn 0 -0.24253562503633297 -0.9701425001453319
vn 0 0 -1
vn 0.21326412177451576 0.9192419042004989 0.3309270855121796
vn 0.24455314348377255 0.2882233476773034 -0.9258083289028533
vn 0.32680691367338893 0.8987190126018195 0.2924061859182953
vn 0.48154341234307685 0.8427009716003845 0.24077170617153842
vn -0.48154341234307685 0.8427009716003845 -0.24077170617153842
vn -0.32680691367338893 0.8987190126018195 -0.2924061859182953
vn -0.24455314348377255 0.2882233476773034 0.9258083289028533
vn -0.21326412177451576 0.9192419042004989 -0.3309270855121796
vn 0 -0 1
vn 0 -0.24253562503633297 0.9701425001453319
vn 0 0.9863939238321437 -0.1643989873053573
vn 0 0.8804710999221753 -0.4740998230350175
vn 0.01180233733028013 0.9795939984132508 -0.2006397346147622
vn 0.025607204644197305 0.8999103346389338 -0.4353224789513542
vn 0.20265262024940064 0.2714097592645236 0.9408871654359122
vn 0.2819109417161561 0.9128544779380292 -0.2953352722740683
vn 0.3427171900005344 0.8996326237285149 -0.2705662026223638
vn 0.4287731893029625 0.8714418060389486 -0.23820732739053474

o entity1_brush0
usemtl 128_gold_3
f  1/1/1  2/2/1  3/3/1
usemtl 128_gold_3
f  4/4/2  3/3/2  2/2/2
usemtl 128_gold_3
f  2/5/3  1/6/3  5/7/3
usemtl 128_gold_3
f  6/8/4  3/9/4  4/10/4
usemtl 128_gold_3
f  5/7/5  1/6/5  7/11/5
usemtl 128_gold_3
f  8/12/6  3/9/6  6/8/6
usemtl 128_gold_3
f  7/13/7  1/14/7  9/15/7
usemtl 128_gold_3
f  10/16/8  3/9/8  8/12/8
usemtl 128_gold_3
f  6/17/9  4/18/9  2/19/9
usemtl 128_gold_3
f  6/17/10  2/19/10  5/20/10
usemtl 128_gold_3
f  9/21/11  1/22/11  3/23/11  10/24/11
usemtl 128_gold_3
f  7/25/12  9/26/12  11/27/12
usemtl 128_gold_3
f  12/28/13  10/29/13  8/30/13
usemtl 128_gold_3
f  11/31/14  9/32/14  10/33/14  12/34/14
usemtl 128_gold_3
f  6/35/15  5/36/15  7/37/15  11/31/15  12/34/15  8/38/15

o entity1_brush1
usemtl 128_gold_3
f  13/39/16  14/40/16  15/41/16  16/42/16  17/43/16  18/44/16
usemtl 128_gold_3
f  19/32/17  15/41/17  14/40/17  20/33/17
usemtl 128_gold_3
f  16/30/18  15/28/18  19/29/18
usemtl 128_gold_3
f  20/26/19  14/27/19  13/25/19
usemtl 128_gold_3
f  21/45/11  19/46/11  20/47/11  22/48/11
usemtl 128_gold_3
f  18/49/20  17/50/20  23/51/20
usemtl 128_gold_3
f  23/51/21  17/50/21  24/52/21
usemtl 128_gold_3
f  16/53/22  19/54/22  21/55/22
usemtl 128_gold_3
f  22/56/23  20/57/23  13/58/23
usemtl 128_gold_3
f  17/59/24  16/53/24  21/55/24
usemtl 128_gold_3
f  22/60/25  13/61/25  18/62/25
usemtl 128_gold_3
f  24/63/26  17/59/26  21/55/26
usemtl 128_gold_3
f  22/60/27  18/62/27  23/64/27
usemtl 128_gold_3
f  23/65/28  24/66/28  21/67/28
usemtl 128_gold_3
f  22/68/29  23/65/29  21/67/29

o entity1_brush2
usemtl 128_gold_3
f  25/69/30  26/70/30  27/71/30
usemtl 128_gold_3
f  26/70/31  25/69/31  28/72/31
usemtl 128_gold_3
f  28/72/32  25/69/32  29/73/32
usemtl 128_gold_3
f  30/28/33  27/29/33  26/30/33
usemtl 128_gold_3
f  31/74/34  29/75/34  25/76/34
usemtl 128_gold_3
f  28/77/35  29/78/35  31/79/35
usemtl 128_gold_3
f  31/74/36  25/76/36  32/80/36
usemtl 128_gold_3
f  33/81/37  28/77/37  31/79/37
usemtl 128_gold_3
f  32/82/11  25/83/11  27/84/11  34/85/11
usemtl 128_gold_3
f  34/33/38  27/32/38  30/41/38  35/40/38
usemtl 128_gold_3
f  36/39/39  35/40/39  30/41/39  26/42/39  28/43/39  33/44/39
usemtl 128_gold_3
f  33/86/40  31/87/40  32/88/40
usemtl 128_gold_3
f  34/26/41  35/27/41  36/25/41
usemtl 128_gold_3
f  36/89/42  33/86/42  32/88/42
usemtl 128_gold_3
f  32/90/43  34/91/43  36/92/43

o entity1_brush3
usemtl 128_gold_3
f  37/93/44  38/94/44  39/95/44
usemtl 128_gold_3
f  40/96/45  39/97/45  38/98/45
usemtl 128_gold_3
f  41/99/46  38/100/46  37/101/46
usemtl 128_gold_3
f  39/97/47  40/96/47  42/102/47
usemtl 128_gold_3
f  43/35/48  40/36/48  38/37/48  41/31/48  44/34/48  45/38/48
usemtl 128_gold_3
f  44/34/49  41/31/49  37/32/49  46/33/49
usemtl 128_gold_3
f  46/103/11  37/104/11  39/105/11  47/106/11
usemtl 128_gold_3
f  42/107/50  40/108/50  43/109/50
usemtl 128_gold_3
f  47/110/51  39/111/51  42/112/51
usemtl 128_gold_3
f  48/113/52  42/107/52  43/109/52
usemtl 128_gold_3
f  47/110/53  42/112/53  48/114/53
usemtl 128_gold_3
f  45/115/54  44/116/54  46/117/54
usemtl 128_gold_3
f  47/118/55  48/119/55  43/120/55
usemtl 128_gold_3
f  47/118/56  43/120/56  45/121/56
usemtl 128_gold_3
f  47/118/57  45/121/57  46/122/57

