mtllib thePrix_dunes.mtl
# vertices
v 232 -96 -227.13843876329338
v 280 -88 -240
v 232 -96 -252.86156123670705
v 244.8615612367139 -96 -204.8615612366557
v 244.8615612367161 -96 -275.13843876334204
v 267.1384387633516 -96 -192
v 267.1384387632679 -96 -288
v 292.86156123660567 -96 -192
v 328 -96 -227.1384387633061
v 315.1384387633061 -96 -204.86156123669392
v 292.8615612366939 -96 -288
v 315.138438763306 -96 -275.13843876330617
v 328 -96 -252.86156123669377
v 232 -96 268.8615612367066
v 280 -88 256
v 232 -96 243.1384387632944
v 244.8615612367139 -96 291.13843876333704
v 244.86156123671284 -96 220.86156123666194
v 267.13843876334613 -96 304
v 267.1384387632679 -96 208
v 292.86156123661823 -96 304
v 328 -96 268.86156123669383
v 315.1384387633061 -96 291.13843876330606
v 292.8615612367 -96 208
v 315.1384387633063 -96 220.86156123669406
v 328 -96 243.138438763306
v -304 -96 268.86156123671935
v -256 -88 256
v -304 -96 243.13843876327974
v -291.1384387632643 -96 291.13843876337705
v -291.1384387632653 -96 220.86156123662207
v -268.8615612366066 -96 304
v -268.8615612367721 -96 208
v -243.1384387634762 -96 304
v -208 -96 268.8615612366938
v -220.86156123669383 -96 291.13843876330606
v -243.1384387633061 -96 208
v -220.86156123669383 -96 220.86156123669392
v -208 -96 243.1384387633062
v -304 -96 -227.13843876331703
v -256 -88 -240
v -304 -96 -252.86156123668363
v -291.1384387633225 -96 -204.86156123672117
v -291.1384387633218 -96 -275.13843876327815
v -268.86156123672663 -96 -192
v -268.86156123666296 -96 -288
v -243.1384387632434 -96 -192
v -208 -96 -227.13843876330623
v -220.86156123669375 -96 -204.8615612366941
v -243.13843876330606 -96 -288
v -220.86156123669394 -96 -275.13843876330617
v -208 -96 -252.8615612366936

# texture coordinates
vt 1.6645397 1.7745191
vt 2.0447123 1.875
vt 1.6645397 1.9754809
vt 1.7862172 1.5115837
vt 2.0668492 1.787035
vt 1.6867669 1.6862128
vt 1.6867669 2.051097
vt 2.0668492 1.9502747
vt 1.7862172 2.225726
vt 2.017526 1.3536322
vt 2.1228502 1.7324916
vt 1.8440889 1.4551473
vt 2.017526 2.3581665
vt 1.8440889 2.2566514
vt 2.1228502 1.979307
vt 2.1875 1.7364643
vt 2.087019 1.3562917
vt 2.287981 1.3562917
vt -2.5625 1.7745191
vt -2.462019 1.6004809
vt -2.287981 1.5
vt -2.087019 1.5
vt -1.9129809 1.6004809
vt -1.8125 1.7745191
vt -1.8125 1.9754809
vt -1.9129809 2.149519
vt -2.087019 2.25
vt -2.287981 2.25
vt -2.462019 2.149519
vt -2.5625 1.9754809
vt 2.287981 2.3426855
vt 2.087019 2.3426855
vt 2.1875 1.962513
vt 2.2370377 1.7842194
vt 2.342362 1.40536
vt 2.5157988 1.506875
vt 2.5157988 2.2049236
vt 2.342362 2.3064387
vt 2.2370377 1.9275793
vt 2.2632778 1.8384097
vt 2.5439098 1.5629584
vt 2.6433601 1.7375875
vt 2.6433601 1.9997221
vt 2.5439098 2.1743512
vt 2.2632778 1.8989
vt 2.6509337 1.9754809
vt 2.270761 1.875
vt 2.6509337 1.7745191
vt 1.6645397 -2.100481
vt 2.0447123 -2
vt 1.6645397 -1.8995191
vt 1.7862172 -2.350303
vt 2.0668492 -2.0748518
vt 1.6867669 -2.1756737
vt 1.6867669 -1.8107898
vt 2.0668492 -1.9116119
vt 1.7862172 -1.6361607
vt 2.017526 -2.481893
vt 2.1228502 -2.1030335
vt 1.8440889 -2.380378
vt 2.017526 -1.4773588
vt 1.8440889 -1.5788739
vt 2.1228502 -1.8562182
vt 2.1875 -2.085812
vt 2.087019 -2.4659848
vt 2.287981 -2.4659848
vt -2.5625 -2.100481
vt -2.462019 -2.274519
vt -2.287981 -2.375
vt -2.087019 -2.375
vt -1.9129809 -2.274519
vt -1.8125 -2.100481
vt -1.8125 -1.8995191
vt -1.9129809 -1.7254809
vt -2.087019 -1.625
vt -2.287981 -1.625
vt -2.462019 -1.7254809
vt -2.5625 -1.8995191
vt 2.287981 -1.4795909
vt 2.087019 -1.4795909
vt 2.1875 -1.8597635
vt 2.2370377 -2.0513058
vt 2.342362 -2.4301653
vt 2.5157988 -2.3286502
vt 2.5157988 -1.6306016
vt 2.342362 -1.5290866
vt 2.2370377 -1.907946
vt 2.2632778 -2.023477
vt 2.5439098 -2.2989283
vt 2.6433601 -2.124299
vt 2.6433601 -1.8621645
vt 2.5439098 -1.6875354
vt 2.2632778 -1.9629866
vt 2.6509337 -1.8995191
vt 2.270761 -2
vt 2.6509337 -2.100481
vt -2.4659848 -2.100481
vt -2.085812 -2
vt -2.4659848 -1.8995191
vt -2.3583329 -2.30113
vt -2.0777009 -2.0256786
vt -2.4577832 -2.1265008
vt -2.4577832 -1.8599627
vt -2.0777009 -1.9607848
vt -2.3583329 -1.6853336
vt -2.1555095 -2.4323823
vt -2.0501852 -2.0535228
vt -2.3289464 -2.330867
vt -2.1555095 -1.5268697
vt -2.3289464 -1.6283847
vt -2.0501852 -1.9057292
vt -2 -2.085812
vt -2.100481 -2.4659848
vt -1.8995191 -2.4659848
vt 1.625 -2.100481
vt 1.7254809 -2.274519
vt 1.8995191 -2.375
vt 2.100481 -2.375
vt 2.274519 -2.274519
vt 2.375 -2.100481
vt 2.375 -1.8995191
vt 2.274519 -1.7254809
vt 2.100481 -1.625
vt 1.8995191 -1.625
vt 1.7254809 -1.7254809
vt 1.625 -1.8995191
vt -1.8995191 -1.4795909
vt -2.100481 -1.4795909
vt -2 -1.8597635
vt -1.9359977 -2.1008167
vt -1.8306736 -2.4796762
vt -1.6572366 -2.3781612
vt -1.6572366 -1.5810908
vt -1.8306736 -1.4795758
vt -1.9359977 -1.8584352
vt -1.8812723 -2.07265
vt -1.6006404 -2.3481011
vt -1.5011901 -2.173472
vt -1.5011901 -1.8129915
vt -1.6006404 -1.6383625
vt -1.8812723 -1.9138137
vt -1.4795909 -1.8995191
vt -1.8597635 -2
vt -1.4795909 -2.100481
vt -2.4659848 1.7745191
vt -2.085812 1.875
vt -2.4659848 1.9754809
vt -2.3583329 1.5607567
vt -2.0777009 1.8362079
vt -2.4577832 1.7353857
vt -2.4577832 2.0019238
vt -2.0777009 1.9011017
vt -2.3583329 2.176553
vt -2.1555095 1.403143
vt -2.0501852 1.7820024
vt -2.3289464 1.5046581
vt -2.1555095 2.3086555
vt -2.3289464 2.2071404
vt -2.0501852 1.9297961
vt -2 1.7364643
vt -2.100481 1.3562917
vt -1.8995191 1.3562917
vt 1.625 1.7745191
vt 1.7254809 1.6004809
vt 1.8995191 1.5
vt 2.100481 1.5
vt 2.274519 1.6004809
vt 2.375 1.7745191
vt 2.375 1.9754809
vt 2.274519 2.149519
vt 2.100481 2.25
vt 1.8995191 2.25
vt 1.7254809 2.149519
vt 1.625 1.9754809
vt -1.8995191 2.3426855
vt -2.100481 2.3426855
vt -2 1.962513
vt -1.9359977 1.7347085
vt -1.8306736 1.3558491
vt -1.6572366 1.4573642
vt -1.6572366 2.2544346
vt -1.8306736 2.3559496
vt -1.9359977 1.9770901
vt -1.8812723 1.7892367
vt -1.6006404 1.5137855
vt -1.5011901 1.6884146
vt -1.5011901 2.0488951
vt -1.6006404 2.223524
vt -1.8812723 1.9480729
vt -1.4795909 1.9754809
vt -1.8597635 1.875
vt -1.4795909 1.7745191

# normals
vn -0.16439898730535726 0.9863939238321436 -0
vn -0.14237369936287492 0.9863939238321436 0.08219949365267855
vn -0.14237369936287483 0.9863939238321436 -0.0821994936526786
vn -0.0821994936526786 0.9863939238321436 0.14237369936287483
vn -0.0821994936526786 0.9863939238321436 -0.14237369936287483
vn 0 0.9863939238321439 0.16439898730535732
vn 0 -1 0
vn 0 0.9863939238321439 -0.16439898730535732
vn 0.0821994936526786 0.9863939238321436 0.14237369936287483
vn 0.0821994936526786 0.9863939238321436 -0.14237369936287483
vn 0.14237369936287483 0.9863939238321436 0.0821994936526786
vn 0.14237369936287483 0.9863939238321436 -0.0821994936526786
vn 0.16439898730535732 0.9863939238321439 -0
vn -0.16439898730535732 0.9863939238321439 -0
vn -0.14237369936287483 0.9863939238321436 0.0821994936526786

o entity1_brush0
usemtl 128_brown_1
f  1/1/1  2/2/1  3/3/1
usemtl 128_brown_1
f  4/4/2  2/5/2  1/6/2
usemtl 128_brown_1
f  3/7/3  2/8/3  5/9/3
usemtl 128_brown_1
f  6/10/4  2/11/4  4/12/4
usemtl 128_brown_1
f  7/13/5  5/14/5  2/15/5
usemtl 128_brown_1
f  2/16/6  6/17/6  8/18/6
usemtl 128_brown_1
f  9/19/7  10/20/7  8/21/7  6/22/7  4/23/7  1/24/7  3/25/7  5/26/7  7/27/7  11/28/7  12/29/7  13/30/7
usemtl 128_brown_1
f  11/31/8  7/32/8  2/33/8
usemtl 128_brown_1
f  2/34/9  8/35/9  10/36/9
usemtl 128_brown_1
f  12/37/10  11/38/10  2/39/10
usemtl 128_brown_1
f  2/40/11  10/41/11  9/42/11
usemtl 128_brown_1
f  13/43/12  12/44/12  2/45/12
usemtl 128_brown_1
f  13/46/13  2/47/13  9/48/13

o entity1_brush1
usemtl 128_brown_1
f  14/49/14  15/50/14  16/51/14
usemtl 128_brown_1
f  17/52/15  15/53/15  14/54/15
usemtl 128_brown_1
f  16/55/3  15/56/3  18/57/3
usemtl 128_brown_1
f  19/58/4  15/59/4  17/60/4
usemtl 128_brown_1
f  20/61/5  18/62/5  15/63/5
usemtl 128_brown_1
f  15/64/6  19/65/6  21/66/6
usemtl 128_brown_1
f  22/67/7  23/68/7  21/69/7  19/70/7  17/71/7  14/72/7  16/73/7  18/74/7  20/75/7  24/76/7  25/77/7  26/78/7
usemtl 128_brown_1
f  24/79/8  20/80/8  15/81/8
usemtl 128_brown_1
f  15/82/9  21/83/9  23/84/9
usemtl 128_brown_1
f  25/85/10  24/86/10  15/87/10
usemtl 128_brown_1
f  15/88/11  23/89/11  22/90/11
usemtl 128_brown_1
f  26/91/12  25/92/12  15/93/12
usemtl 128_brown_1
f  26/94/13  15/95/13  22/96/13

o entity1_brush2
usemtl 128_brown_1
f  27/97/14  28/98/14  29/99/14
usemtl 128_brown_1
f  30/100/15  28/101/15  27/102/15
usemtl 128_brown_1
f  29/103/3  28/104/3  31/105/3
usemtl 128_brown_1
f  32/106/4  28/107/4  30/108/4
usemtl 128_brown_1
f  33/109/5  31/110/5  28/111/5
usemtl 128_brown_1
f  28/112/6  32/113/6  34/114/6
usemtl 128_brown_1
f  35/115/7  36/116/7  34/117/7  32/118/7  30/119/7  27/120/7  29/121/7  31/122/7  33/123/7  37/124/7  38/125/7  39/126/7
usemtl 128_brown_1
f  37/127/8  33/128/8  28/129/8
usemtl 128_brown_1
f  28/130/9  34/131/9  36/132/9
usemtl 128_brown_1
f  38/133/10  37/134/10  28/135/10
usemtl 128_brown_1
f  28/136/11  36/137/11  35/138/11
usemtl 128_brown_1
f  39/139/12  38/140/12  28/141/12
usemtl 128_brown_1
f  39/142/13  28/143/13  35/144/13

o entity1_brush3
usemtl 128_brown_1
f  40/145/1  41/146/1  42/147/1
usemtl 128_brown_1
f  43/148/2  41/149/2  40/150/2
usemtl 128_brown_1
f  42/151/3  41/152/3  44/153/3
usemtl 128_brown_1
f  45/154/4  41/155/4  43/156/4
usemtl 128_brown_1
f  46/157/5  44/158/5  41/159/5
usemtl 128_brown_1
f  41/160/6  45/161/6  47/162/6
usemtl 128_brown_1
f  48/163/7  49/164/7  47/165/7  45/166/7  43/167/7  40/168/7  42/169/7  44/170/7  46/171/7  50/172/7  51/173/7  52/174/7
usemtl 128_brown_1
f  50/175/8  46/176/8  41/177/8
usemtl 128_brown_1
f  41/178/9  47/179/9  49/180/9
usemtl 128_brown_1
f  51/181/10  50/182/10  41/183/10
usemtl 128_brown_1
f  41/184/11  49/185/11  48/186/11
usemtl 128_brown_1
f  52/187/12  51/188/12  41/189/12
usemtl 128_brown_1
f  52/190/13  41/191/13  48/192/13

